<svg width="102" height="32" viewBox="0 0 102 32" fill="none" xmlns="http://www.w3.org/2000/svg">
<g clip-path="url(#clip0_25_12)">
<path d="M0 22.4012V1.01494H3.75621V22.4012H0ZM13.373 6.88665C12.3101 6.86271 11.2532 7.05168 10.2645 7.44245C9.27578 7.83321 8.37526 8.41787 7.61597 9.16199C6.85667 9.9061 6.25396 10.7946 5.84331 11.7753C5.43266 12.7559 5.22239 13.8087 5.22488 14.8719C5.22737 15.935 5.44257 16.9869 5.8578 17.9656C6.27303 18.9442 6.8799 19.8299 7.64267 20.5705C8.40544 21.311 9.30868 21.8915 10.2992 22.2776C11.2897 22.6637 12.3475 22.8478 13.4102 22.8188C14.4681 22.8349 15.5186 22.6401 16.5004 22.2458C17.4822 21.8514 18.3757 21.2655 19.1286 20.5222C19.8815 19.7789 20.4788 18.893 20.8857 17.9164C21.2926 16.9397 21.5009 15.8918 21.4984 14.8338C21.4959 13.7758 21.2827 12.7288 20.8713 11.7541C20.4599 10.7793 19.8584 9.8963 19.102 9.15651C18.3456 8.41672 17.4494 7.83499 16.4658 7.44527C15.4822 7.05555 14.4308 6.86565 13.373 6.88665ZM13.3294 10.5061C14.1898 10.496 15.0336 10.7419 15.7539 11.2125C16.4741 11.6831 17.0382 12.3572 17.3745 13.1492C17.7107 13.9411 17.8039 14.8151 17.6423 15.6602C17.4807 16.5052 17.0715 17.2831 16.4667 17.8951C15.862 18.507 15.0889 18.9254 14.2459 19.097C13.4028 19.2686 12.5277 19.1857 11.7319 18.8588C10.936 18.5319 10.2553 17.9758 9.77622 17.2612C9.29714 16.5466 9.04131 15.7057 9.04125 14.8453C9.0365 14.2784 9.1438 13.7162 9.35699 13.1909C9.57018 12.6657 9.88506 12.1877 10.2835 11.7845C10.682 11.3813 11.1562 11.0608 11.6789 10.8414C12.2017 10.622 12.7626 10.5081 13.3294 10.5061ZM30.9347 6.88665C29.8718 6.86271 28.8149 7.05168 27.8262 7.44245C26.8375 7.83321 25.937 8.41787 25.1777 9.16199C24.4184 9.9061 23.8157 10.7946 23.405 11.7753C22.9944 12.7559 22.7841 13.8087 22.7866 14.8719C22.7891 15.935 23.0043 16.9869 23.4195 17.9656C23.8347 18.9442 24.4416 19.8299 25.2044 20.5705C25.9671 21.311 26.8704 21.8915 27.8609 22.2776C28.8514 22.6637 29.9092 22.8478 30.972 22.8188C32.0334 22.8447 33.0891 22.6561 34.0759 22.2641C35.0626 21.8722 35.9601 21.2851 36.7145 20.538C37.4689 19.7909 38.0647 18.8992 38.4662 17.9163C38.8678 16.9334 39.0667 15.8796 39.0512 14.8179C39.1565 13.3533 38.7209 11.9009 37.8269 10.7361L38.8684 10.3794V7.33039H33.5399C32.7019 7.03998 31.8216 6.89005 30.9347 6.88665ZM30.8912 10.5061C31.7515 10.496 32.5953 10.7419 33.3156 11.2125C34.0358 11.6831 34.5999 12.3572 34.9362 13.1492C35.2724 13.9411 35.3657 14.8151 35.204 15.6602C35.0424 16.5052 34.6332 17.2831 34.0284 17.8951C33.4237 18.507 32.6506 18.9254 31.8076 19.097C30.9645 19.2686 30.0894 19.1857 29.2936 18.8588C28.4977 18.5319 27.817 17.9758 27.3379 17.2612C26.8588 16.5466 26.603 15.7057 26.603 14.8453C26.5982 14.2784 26.7055 13.7162 26.9187 13.1909C27.1319 12.6657 27.4468 12.1877 27.8452 11.7845C28.2437 11.3813 28.7179 11.0608 29.2407 10.8414C29.7634 10.622 30.3243 10.5081 30.8912 10.5061ZM35.2415 23.4428C35.2415 24.5926 34.7847 25.6954 33.9717 26.5084C33.1586 27.3215 32.0559 27.7782 30.9061 27.7782C29.7562 27.7782 28.6535 27.3215 27.8405 26.5084C27.0274 25.6954 26.5707 24.5926 26.5707 23.4428H22.7585C22.7407 24.5143 22.9419 25.5782 23.3498 26.5692C23.7576 27.5602 24.3636 28.4575 25.1305 29.206C25.8974 29.9545 26.8092 30.5386 27.8098 30.9223C28.8104 31.306 29.8788 31.4813 30.9496 31.4375C32.0104 31.4646 33.0657 31.2771 34.0522 30.8863C35.0388 30.4955 35.9362 29.9094 36.6908 29.1633C37.4453 28.4171 38.0413 27.5263 38.443 26.5441C38.8448 25.562 39.044 24.5088 39.0288 23.4478L35.2415 23.4428ZM40.5638 22.3975V7.33039H44.3213V22.4012L40.5638 22.3975ZM47.9681 22.3975V10.7063H45.9533V7.33039H47.9681V2.70287H51.7243V7.33039H53.7938V10.7063H51.7243V22.4012L47.9681 22.3975ZM44.9216 3.04841C44.9216 3.54008 44.7758 4.0207 44.5027 4.42951C44.2295 4.83831 43.8413 5.15694 43.387 5.34509C42.9328 5.53324 42.433 5.58247 41.9507 5.48655C41.4685 5.39063 41.0256 5.15387 40.6779 4.80621C40.3303 4.45855 40.0935 4.01561 39.9976 3.53339C39.9017 3.05117 39.9509 2.55133 40.139 2.09709C40.3272 1.64285 40.6458 1.25461 41.0546 0.981451C41.4634 0.708296 41.9441 0.5625 42.4357 0.5625C43.095 0.5625 43.7273 0.824408 44.1935 1.29061C44.6597 1.7568 44.9216 2.38911 44.9216 3.04841ZM62.2397 6.87671C61.1777 6.85517 60.1225 7.05071 59.1388 7.45134C58.155 7.85198 57.2634 8.44927 56.5187 9.20662C55.7739 9.96397 55.1916 10.8654 54.8075 11.8557C54.4234 12.8461 54.2455 13.9044 54.2848 14.9659C54.2413 16.0252 54.4208 17.0818 54.8117 18.0673C55.2026 19.0528 55.7962 19.9451 56.554 20.6866C57.3119 21.428 58.217 22.0019 59.2108 22.3712C60.2046 22.7404 61.2649 22.8967 62.323 22.83C63.5998 22.8704 64.8703 22.636 66.0487 22.1428C67.227 21.6496 68.2857 20.909 69.153 19.9712L66.6423 17.4567C65.5158 18.6366 63.9969 19.3642 62.3715 19.5026C61.4288 19.5397 60.5027 19.2475 59.7519 18.6762C59.0012 18.1049 58.4728 17.2901 58.2573 16.3716H69.9634V15.3375C69.9634 11.2097 67.5745 6.87795 62.2459 6.87795L62.2397 6.87671ZM62.1154 10.1842C63.0383 10.1312 63.9479 10.4227 64.6679 11.0024C65.3879 11.5821 65.867 12.4085 66.0121 13.3214H58.1442C58.3289 12.4127 58.8297 11.5989 59.5577 11.0245C60.2856 10.4501 61.1937 10.1524 62.1204 10.1842H62.1154ZM79.354 22.8313C78.2917 22.8553 77.2353 22.6669 76.2467 22.2773C75.2581 21.8876 74.3574 21.3044 73.5972 20.562C72.837 19.8195 72.2327 18.9328 71.8198 17.9537C71.4069 16.9746 71.1936 15.923 71.1926 14.8604C71.1915 13.7978 71.4026 12.7457 71.8136 11.7658C72.2245 10.7859 72.827 9.89791 73.5856 9.15394C74.3443 8.40996 75.2439 7.82498 76.2317 7.43329C77.2194 7.04161 78.2755 6.85112 79.3378 6.87298C80.5681 6.86363 81.785 7.12917 82.8996 7.65021C84.0141 8.17126 84.9982 8.93466 85.7801 9.88466L83.1537 12.4949C82.6844 11.9202 82.101 11.4491 81.4403 11.1115C80.7796 10.7739 80.0561 10.5771 79.3154 10.5335C78.745 10.5193 78.1776 10.6208 77.6474 10.8318C77.1172 11.0428 76.6353 11.359 76.2306 11.7614C75.826 12.1637 75.507 12.6438 75.2929 13.1728C75.0788 13.7017 74.9741 14.2686 74.985 14.8391C74.9711 15.4106 75.0724 15.9791 75.2828 16.5106C75.4932 17.0422 75.8085 17.526 76.2097 17.9332C76.611 18.3404 77.0901 18.6627 77.6186 18.8808C78.147 19.099 78.7139 19.2086 79.2856 19.2031C80.0318 19.1643 80.7616 18.9695 81.4279 18.6312C82.0941 18.293 82.682 17.8188 83.1537 17.2392L85.8012 19.8494C85.0173 20.7966 84.0312 21.5562 82.9153 22.0724C81.7994 22.5886 80.5821 22.8483 79.3527 22.8325L79.354 22.8313ZM87.1697 22.4124V0.960246H90.9259V8.84182C91.491 8.1922 92.1949 7.67796 92.9856 7.33716C93.7763 6.99636 94.6335 6.83772 95.4938 6.87298C99.4277 6.87298 101.709 9.79765 101.709 13.5377V22.4124H97.9449V14.1107C98.0013 13.6524 97.957 13.1872 97.8149 12.7478C97.6729 12.3084 97.4366 11.9053 97.1225 11.5667C96.8084 11.2281 96.4242 10.9622 95.9966 10.7876C95.5691 10.613 95.1086 10.5339 94.6473 10.5559C94.1457 10.516 93.6413 10.5858 93.1694 10.7604C92.6974 10.9351 92.2692 11.2104 91.9143 11.5672C91.5595 11.9241 91.2866 12.3539 91.1146 12.8268C90.9427 13.2997 90.8757 13.8044 90.9184 14.3059V22.4186H87.1697V22.4124Z" fill="#757693"/>
</g>
<defs>
<clipPath id="clip0_25_12">
<rect width="101.707" height="30.875" fill="white" transform="translate(0 0.5625)"/>
</clipPath>
</defs>
</svg>
